<?xml version="1.0" encoding="UTF-8" standalone="no"?>
<!-- Created with Inkscape (http://www.inkscape.org/) -->

<svg
   version="1.1"
   id="svg1049"
   width="500"
   height="500"
   viewBox="0 0 500 500"
   sodipodi:docname="pyScope.svg"
   inkscape:version="1.2.2 (732a01da63, 2022-12-09)"
   xmlns:inkscape="http://www.inkscape.org/namespaces/inkscape"
   xmlns:sodipodi="http://sodipodi.sourceforge.net/DTD/sodipodi-0.dtd"
   xmlns="http://www.w3.org/2000/svg"
   xmlns:svg="http://www.w3.org/2000/svg">
  <defs
     id="defs1053">
    <clipPath
       clipPathUnits="userSpaceOnUse"
       id="clipPath1065">
      <path
         d="M 0,0 H 1562.5 V 1593.75 H 0 Z"
         clip-rule="evenodd"
         id="path1063" />
    </clipPath>
    <clipPath
       clipPathUnits="userSpaceOnUse"
       id="clipPath1077">
      <path
         d="M 0,0 H 1562.5 V 1562.5 H 0 Z"
         clip-rule="evenodd"
         id="path1075" />
    </clipPath>
    <clipPath
       clipPathUnits="userSpaceOnUse"
       id="clipPath1089">
      <path
         d="M 0,0 H 1562.5 V 1562.5 H 0 Z"
         clip-rule="evenodd"
         id="path1087" />
    </clipPath>
    <clipPath
       clipPathUnits="userSpaceOnUse"
       id="clipPath1101">
      <path
         d="M 24.721582,510.54688 H 649.72158 V 1051.1719 H 24.721582 Z"
         clip-rule="evenodd"
         id="path1099" />
    </clipPath>
    <clipPath
       clipPathUnits="userSpaceOnUse"
       id="clipPath1111">
      <path
         d="M 24.721582,510.54688 H 649.72158 V 1051.1719 H 24.721582 Z"
         clip-rule="evenodd"
         id="path1109" />
    </clipPath>
    <clipPath
       clipPathUnits="userSpaceOnUse"
       id="clipPath1123">
      <path
         d="M 0,0 H 1562.5 V 1562.5 H 0 Z"
         clip-rule="evenodd"
         id="path1121" />
    </clipPath>
  </defs>
  <sodipodi:namedview
     id="namedview1051"
     pagecolor="#505050"
     bordercolor="#eeeeee"
     borderopacity="1"
     inkscape:showpageshadow="0"
     inkscape:pageopacity="0"
     inkscape:pagecheckerboard="0"
     inkscape:deskcolor="#505050"
     showgrid="false"
     inkscape:zoom="1.624"
     inkscape:cx="221.67488"
     inkscape:cy="250"
     inkscape:window-width="1920"
     inkscape:window-height="1057"
     inkscape:window-x="-8"
     inkscape:window-y="-8"
     inkscape:window-maximized="1"
     inkscape:current-layer="g1057">
    <inkscape:page
       x="0"
       y="0"
       id="page1055"
       width="500"
       height="500" />
  </sodipodi:namedview>
  <g
     id="g1057"
     inkscape:groupmode="layer"
     inkscape:label="Page 1"
     transform="matrix(0.31999998,0,0,0.31999998,0,9.434666e-6)">
    <rect
       style="fill:#0b0f8f;fill-opacity:1;stroke:none;stroke-width:2.70473"
       id="rect1710"
       width="800.00006"
       height="800.00012"
       x="381.25003"
       y="381.24997"
       inkscape:export-filename="logo16.png"
       inkscape:export-xdpi="6"
       inkscape:export-ydpi="6" />
    <g
       id="g1095">
      <g
         id="g1097"
         clip-path="url(#clipPath1101)">
        <g
           id="g1103"
           transform="matrix(3.125,0,0,3.125,24.721582,510.54688)" />
      </g>
    </g>
    <g
       id="g1107"
       clip-path="url(#clipPath1111)"
       transform="matrix(1.0992759,0,0,1.1786574,410.55055,-139.11572)"
       style="stroke:none;fill:#ffffff">
      <g
         id="g1113"
         transform="matrix(3.4705527,0,0,3.4655447,24.871822,510.54688)"
         style="stroke:none;fill:#ffffff">
        <path
           d="M 0,80.199997 V 78 L 6.5999999,75.199997 3.5999999,68 11,64.800003 l 3,7.400002 21.400002,-8.8 0.799999,-5.799999 L 123.8,21.400005 l 1,-5.8 C 143.40001,7.800005 162,4.7683716e-6 163,4.7683716e-6 c 7,0 17,16.7999982316284 17,29.9999992316284 0,4.400001 -1.39999,6.599998 -3,7.200001 l -37,15.400001 -4.60001,-3.599998 -26,10.799999 -0.19999,4.399998 -7.4,3 2,5 c 3.59999,1.400001 5.59999,3.199997 7.19999,6.800003 L 146.2,154.60001 143,156 105.8,91 l -3.19999,53 h -3.200001 l -3.599998,-53 -36.8,65 -3.2,-1.39999 36.400001,-78.800007 -1.400001,-4 L 83.400009,75 80.000008,72 47.600006,85.400002 43.000008,82 l -19.4,8 z M 162,9 c 0,9.4 7.8,23.799999 12.39999,23.799999 1.2,0 2.4,-1.200001 2.4,-4.799999 0,-8 -7.60001,-23.2000008 -12.4,-23.2000008 -1.39999,0 -2.39999,1 -2.39999,4.1999998 z"
           style="fill:#ffffff;fill-opacity:1;fill-rule:nonzero;stroke:none"
           id="path1115" />
      </g>
    </g>
  </g>
</svg>
